<svg id="Layer_1" data-name="Layer 1" xmlns="http://www.w3.org/2000/svg" viewBox="0 0 273.7 228.14"><path d="M1,69.44H18.3c1.25,10.48,4.8,17.12,15.36,20.09C46.32,93.45,67.8,90,64.81,72.72a11.31,11.31,0,0,0-8.53-9.46c-9-2.66-18-5-27-7.57C17.21,53,6.14,46.2,5,32.75,1.1.57,46.87-8.17,67.84,7.75c8.12,5.91,11.93,14,12,24.31h-17C58.44,16.62,43.38,9.1,28.7,17.17a11.64,11.64,0,0,0-1.32,19.92,27.08,27.08,0,0,0,8.16,3.55c8.51,2.43,17.13,4.49,25.64,6.91C74,51.19,81.76,60,82.66,71.56c2.9,33.13-41.76,41.27-65,27.75C6,93.19,1.5,82.59,1,69.44Z"/><path d="M155.16,70.67H101.52a22.11,22.11,0,0,0,5.92,16.58C113.66,94,132,94.89,137.26,82.6a3.55,3.55,0,0,1,3.92-2.54c3.94.15,7.9,0,12.37,0C150.86,91,144.75,98.22,135,102.18,111.21,111.81,88.26,98,85.51,72.46c-3.27-23.3,12.75-46.37,37.35-44.13C138.42,29.61,150.37,40.14,153.7,56,154.66,60.53,154.66,65.31,155.16,70.67Zm-53.4-10.86H138C138.17,49,129.7,40.57,119.43,41S100.82,50.22,101.76,59.81Z"/><path d="M227.41,54.51c-5,0-9.74.09-14.43-.1-.72,0-1.77-1.26-2-2.13-2.08-7-6.84-10.56-13.87-11.19-7.69-.7-14.45,1.57-18.1,8.66-5.73,11.13-5.62,22.7.24,33.79,1.46,2.78,4.69,4.61,7.08,6.91.74.71,1.94,1.48,2,2.27.2,3.83.09,7.67.09,11.52-25.37-1.55-34.83-32.16-26.75-53.72,6-17,22.66-25.5,41.84-21.5C216.81,31.52,226.29,40.45,227.41,54.51Z"/><path d="M273.7,102.8H258.19V2.65H273.7Z"/><path d="M74.55,153.19H69.89c-.78-12.31-5.33-22.38-18-25.71-14.23-4.14-40-2.38-43.33,15.6-1.91,10,1.73,17.88,11.29,21.39,8.61,3.17,17.72,5,26.59,7.5,14.26,4,28.45,6.65,30.17,24.15,3.13,23.9-22.12,34.49-42.25,31.53a56.84,56.84,0,0,1-16.53-4.24C5.31,217.89-2.1,203.1.53,190.23H4.82c.54,14.49,5.12,26.68,20.29,30.66,16.53,5,45.54,1.8,46.38-20.19.31-9.49-3.42-16-12.29-19.39C52,178.59,44.36,177.1,36.93,175c-15.35-4.19-33.42-6.42-34-26.33-.36-11,4.06-19.35,14.12-23.85a50.5,50.5,0,0,1,40.75-.6C68.87,128.7,74.92,139.67,74.55,153.19Z"/><path d="M267.89,190.05H207.82c-2.27,13.82,6.7,28.36,19,31.28,17.43,4.14,28.84-3.21,35.2-22.84h4.27c-.52,35-56,42.18-63.12,1.9-5.47-24.85,7.1-53.23,35.71-50.84,14.13,1.17,25.23,12.06,27.86,27.6C267.42,181.17,267.48,185.29,267.89,190.05Zm-5.81-5.41c1-17-11.25-30.26-27.35-30-15.08.18-28.11,14.63-26.91,30Z"/><path d="M234.26,30.37H249.7v72.28H234.26Z"/><path d="M141.23,149.4c11.84,0,21.15,5,27,15.18,8.93,15.5,9.2,31.66.26,47.09a31.6,31.6,0,0,1-55,0c-8.85-15.3-8.66-31.36.1-46.77C119.58,154.4,129.09,149.3,141.23,149.4Zm-28.64,38.9c0,8.47,1.82,16.38,7,23.27a26.8,26.8,0,0,0,42.45.57c10.3-13,10-35.47-.64-48.25a26.66,26.66,0,0,0-40.5-.28C114.81,170.71,112.57,179.13,112.59,188.3Z"/><path d="M89.32,156.18H76.23v-5H89.17V128.56h5.25v22.32h16v5.24H94.76c-.52,19-.3,37.91-.11,56.93.48,9.4,8.55,7.15,15.49,7.42v4.66c-4.08,0-8.21.53-12.14-.13-5.29-.88-8.42-5.49-8.51-12.12C89.27,193.81,89.35,175.36,89.32,156.18Z"/><path d="M177.36,151.2h4.74v10.34c9.62-7.72,14.84-13.7,28.35-12v4.62c-16.61.46-28,9.77-28.18,27-.24,14.76,0,29.34-.07,44.13h-4.84Z"/><path d="M227,75.62c.46,14.71-14.45,29.49-28.71,28.62V91.88c7.13-2.14,11.13-7.12,12.87-14.23a3.07,3.07,0,0,1,2.12-1.93C217.81,75.53,222.39,75.62,227,75.62Z"/><path d="M249.64,17.54H234.18V2.71h15.46Z"/></svg>